<svg width="296" height="239" viewBox="0 0 296 239" fill="none" xmlns="http://www.w3.org/2000/svg">
<g filter="url(#filter0_di_446_7)">
<path d="M77.2032 6.16596L265.206 106.129C288.921 118.738 297.924 148.186 285.314 171.902C278.154 185.369 265.09 194.697 250.027 197.098L40.3498 230.513C19.4497 233.844 1.48837 215.602 5.14344 194.756C7.39772 181.899 17.5069 171.857 30.3784 169.688L188.054 143.118C201.512 140.85 204.439 122.813 192.389 116.406C189.145 114.681 185.36 114.272 181.822 115.264L145.723 125.383C125.322 131.101 103.502 128.742 84.7948 118.795L32.1894 90.8246C-0.364437 73.5154 -2.01066 27.4712 29.2239 7.88136C43.758 -1.23417 62.0552 -1.88835 77.2032 6.16596Z" fill="white"/>
</g>
<defs>
<filter id="filter0_di_446_7" x="0.667969" y="0.554321" width="294.349" height="238.354" filterUnits="userSpaceOnUse" color-interpolation-filters="sRGB">
<feFlood flood-opacity="0" result="BackgroundImageFix"/>
<feColorMatrix in="SourceAlpha" type="matrix" values="0 0 0 0 0 0 0 0 0 0 0 0 0 0 0 0 0 0 127 0" result="hardAlpha"/>
<feOffset dy="4"/>
<feGaussianBlur stdDeviation="2"/>
<feComposite in2="hardAlpha" operator="out"/>
<feColorMatrix type="matrix" values="0 0 0 0 0 0 0 0 0 0 0 0 0 0 0 0 0 0 0.25 0"/>
<feBlend mode="normal" in2="BackgroundImageFix" result="effect1_dropShadow_446_7"/>
<feBlend mode="normal" in="SourceGraphic" in2="effect1_dropShadow_446_7" result="shape"/>
<feColorMatrix in="SourceAlpha" type="matrix" values="0 0 0 0 0 0 0 0 0 0 0 0 0 0 0 0 0 0 127 0" result="hardAlpha"/>
<feOffset dy="4"/>
<feGaussianBlur stdDeviation="2"/>
<feComposite in2="hardAlpha" operator="arithmetic" k2="-1" k3="1"/>
<feColorMatrix type="matrix" values="0 0 0 0 0 0 0 0 0 0 0 0 0 0 0 0 0 0 0.25 0"/>
<feBlend mode="normal" in2="shape" result="effect2_innerShadow_446_7"/>
</filter>
</defs>
</svg>
